<svg width="45" height="45" viewBox="0 0 45 45" fill="none" xmlns="http://www.w3.org/2000/svg">
<path d="M23.6131 2.8125C25.5808 2.8125 27.5541 3.375 29.2431 4.78125L35.1546 9.84375C35.4361 10.125 35.4361 10.6875 35.1546 10.9688C34.8731 11.25 34.8731 11.8125 35.1546 12.0938L36.5902 13.3594C36.8661 13.6237 37.3193 13.5844 37.6824 13.2187C38.1272 12.7744 38.2454 12.7322 38.8056 13.2187L41.6206 15.7809C42.1414 16.29 42.1724 16.5938 41.8909 16.875L37.3869 22.2188C37.0772 22.6097 36.6268 22.7756 36.2609 22.5L33.7358 20.25C33.4543 19.9688 33.4881 19.4737 33.7358 19.125C33.9835 18.7763 34.037 18.27 33.7358 18L32.2664 16.7878C31.8273 16.4475 31.6302 16.3716 30.9997 16.875C30.5774 17.2153 30.2931 17.1703 30.0116 16.9622C29.7301 16.7569 29.7695 16.7878 29.4627 16.5347C29.0827 16.2253 28.7927 16.1634 28.393 16.5938L21.074 25.5938C21.9185 26.1563 21.9185 27.2812 21.3555 28.125L10.6867 40.7812C9.56632 41.625 8.44032 42.1875 7.3087 42.1875C6.17707 42.1875 5.34383 41.9062 4.50215 41.0625C2.53166 39.375 2.53166 36.8438 3.93915 34.875L14.608 22.2188C14.8895 21.9375 15.4497 21.6562 16.0126 21.6562C16.2941 21.6562 16.8543 21.6562 17.1358 21.9375L23.3288 14.625C24.452 13.5 24.0326 12.0938 22.9066 10.9688L22.2591 10.3641C20.8601 8.95781 18.8276 8.4375 16.5756 8.4375H15.4553C15.1738 8.4375 15.0218 8.1 15.1738 7.875L16.86 5.90625C18.5461 3.9375 21.0796 2.8125 23.6131 2.8125ZM23.6131 0C20.2351 0 16.8571 1.40625 14.9148 4.21875L13.2286 6.1875C12.3869 7.03125 12.1054 8.4375 12.6656 9.5625C13.2286 10.6875 14.3518 11.25 15.475 11.25H16.8797C18.2843 11.25 19.689 11.8125 20.5392 12.6562L21.1022 13.2187L16.0352 18.8438H15.7537C14.3499 18.8438 13.2239 19.4062 12.3757 20.5312L1.70687 33.1875C-0.820995 36.2812 -0.54231 40.7812 2.55136 43.3125C3.95323 44.4375 5.35791 45 7.33685 45C9.58321 45 11.5593 44.1562 12.6853 42.4688L23.3541 29.8125C24.193 28.6875 24.4745 27.2812 24.193 25.875L29.5415 19.6875C29.8371 19.3528 30.386 19.3697 30.386 19.6875C30.386 20.5312 30.949 21.6562 31.7935 22.2188L34.3185 24.4688C35.163 25.0312 36.0056 25.3125 36.8464 25.3125C37.9724 25.3125 39.0984 24.75 39.6558 23.9062L44.1597 18.5625C45.5672 17.1562 45.0887 14.85 43.5967 13.5L41.0689 11.25C40.5059 10.6875 39.6633 10.4062 38.541 10.4062H38.2595C38.2595 9.5625 37.6965 8.4375 36.8548 7.875L30.9434 2.8125C28.9757 0.84375 26.4394 0 23.6244 0L23.6131 0Z" fill="#1A9BFF"/>
</svg>
