<svg width="39" height="39" viewBox="0 0 39 39" fill="none" xmlns="http://www.w3.org/2000/svg">
<path d="M3.21108 27.87C1.5277 21.1365 0.686003 17.7717 2.45375 15.5076C4.22151 13.2434 7.69226 13.2434 14.6318 13.2434H23.7158C30.6573 13.2434 34.1261 13.2434 35.8939 15.5076C37.6616 17.7717 36.8199 21.1385 35.1366 27.87C34.0653 32.1531 33.5316 34.2936 31.9346 35.5414C30.3375 36.7873 28.1303 36.7873 23.7158 36.7873H14.6318C10.2173 36.7873 8.01011 36.7873 6.41305 35.5414C4.81599 34.2936 4.28037 32.1531 3.21108 27.87Z" stroke="black" stroke-width="2.94298"/>
<path opacity="0.5" d="M33.8887 14.2244L32.4957 9.11344C31.9581 7.14164 31.6893 6.15672 31.138 5.41313C30.5883 4.67437 29.8417 4.10527 28.9837 3.77094C28.1204 3.43348 27.1002 3.43348 25.0597 3.43348M4.45886 14.2244L5.85187 9.11344C6.38946 7.14164 6.65825 6.15672 7.20957 5.41313C7.75927 4.67437 8.50583 4.10527 9.36383 3.77094C10.2271 3.43348 11.2473 3.43348 13.2878 3.43348" stroke="black" stroke-width="2.94298"/>
<path d="M13.2878 3.43348C13.2878 2.91313 13.4946 2.41409 13.8625 2.04614C14.2304 1.6782 14.7295 1.47149 15.2498 1.47149H23.0978C23.6181 1.47149 24.1172 1.6782 24.4851 2.04614C24.8531 2.41409 25.0598 2.91313 25.0598 3.43348C25.0598 3.95383 24.8531 4.45287 24.4851 4.82081C24.1172 5.18876 23.6181 5.39547 23.0978 5.39547H15.2498C14.7295 5.39547 14.2304 5.18876 13.8625 4.82081C13.4946 4.45287 13.2878 3.95383 13.2878 3.43348Z" stroke="black" stroke-width="2.94298"/>
</svg>
