<svg width="45" height="45" viewBox="0 0 45 45" fill="none" xmlns="http://www.w3.org/2000/svg">
<path fill-rule="evenodd" clip-rule="evenodd" d="M35.3391 0.225008C38.3288 -0.0750028 40.0387 -0.0750028 42.9185 0.225008C43.8984 0.325012 44.6717 1.10171 44.775 2.08174C45.075 4.96185 45.075 6.67191 44.775 9.66203C44.736 10.0546 44.5863 10.4281 44.3434 10.739C44.1004 11.0498 43.7742 11.2853 43.4027 11.418C43.0312 11.5507 42.6296 11.5752 42.2448 11.4885C41.8599 11.4019 41.5075 11.2078 41.2286 10.9287L39.5388 9.24201C35.1191 14.4022 29.8995 19.4157 24.7232 23.1925C24.322 23.485 23.8296 23.6246 23.3346 23.5861C22.8396 23.5476 22.3746 23.3335 22.0234 22.9825L16.2072 17.1723C11.3518 20.6849 7.15349 25.0259 3.80485 29.9961C3.65078 30.2222 3.45369 30.4157 3.22483 30.5657C2.99597 30.7156 2.73982 30.819 2.47102 30.8699C1.92814 30.9727 1.36665 30.8557 0.910075 30.5445C0.453496 30.2333 0.139226 29.7534 0.0364017 29.2105C-0.0664228 28.6675 0.0506207 28.106 0.361784 27.6494C4.32982 21.7694 9.39132 16.7073 15.2706 12.7388C15.6718 12.4656 16.1557 12.3411 16.6389 12.3868C17.1221 12.4324 17.5742 12.6454 17.9171 12.9888L23.6833 18.7557C28.1896 15.2689 32.7126 10.8354 36.5823 6.28523L34.0658 3.77181C33.7868 3.4929 33.5927 3.14048 33.5061 2.75556C33.4195 2.37064 33.444 1.96904 33.5766 1.59748C33.7093 1.22592 33.9448 0.899673 34.2556 0.656705C34.5664 0.413738 34.9398 0.264033 35.3324 0.225008M29.3062 26.1693C33.4259 22.9992 37.4989 19.1824 41.1753 15.1822C42.3188 15.8821 43.6734 16.1537 44.9983 15.9489V20.5824L44.2151 39.2031L44.2084 39.3165C44.1392 40.6337 43.5845 41.8785 42.6513 42.8106C41.7181 43.7427 40.4726 44.2959 39.1555 44.3633C36.7123 44.51 33.0626 44.7133 29.3829 44.8467H29.3229C27.0064 44.9388 24.6884 44.9899 22.3701 45C16.8705 45 9.23777 44.5867 5.2714 44.3466C4.03529 44.2712 2.86395 43.7679 1.95838 42.9231C1.05281 42.0782 0.469473 40.9445 0.308455 39.7165C0.133669 38.2476 0.0568383 36.7687 0.0784726 35.2896C2.59161 36.4897 5.67804 35.713 7.29125 33.3396C9.79106 29.6728 12.5575 26.5393 15.7706 23.7592V40.6798L15.8473 40.6832C15.9184 40.6854 15.9895 40.6921 16.0606 40.7032C18.1629 40.7821 20.2663 40.8254 22.3701 40.8332C24.4633 40.8332 26.8897 40.7698 29.3062 40.6798V26.1693Z" fill="#1A9BFF"/>
</svg>
