<svg width="27" height="32" viewBox="0 0 27 32" fill="none" xmlns="http://www.w3.org/2000/svg">
<path d="M16.4064 30.2682C16.4064 30.4937 16.3168 30.7101 16.1573 30.8696C15.9977 31.0291 15.7814 31.1187 15.5558 31.1187H11.0333C10.8185 31.1037 10.6174 31.0078 10.4706 30.8503C10.3237 30.6928 10.2421 30.4855 10.2421 30.2702C10.2421 30.0549 10.3237 29.8476 10.4706 29.6902C10.6174 29.5327 10.8185 29.4368 11.0333 29.4217H15.5579C15.7828 29.4223 15.9983 29.5119 16.1573 29.6709C16.3163 29.8299 16.4058 30.0433 16.4064 30.2682ZM13.2945 14.1467C13.4848 14.154 13.6745 14.1229 13.8524 14.0551C14.0303 13.9873 14.1927 13.8844 14.3298 13.7524C14.467 13.6203 14.5761 13.462 14.6506 13.2869C14.7251 13.1117 14.7636 12.9233 14.7636 12.7329C14.7636 12.5426 14.7251 12.3542 14.6506 12.179C14.5761 12.0038 14.467 11.8455 14.3298 11.7135C14.1927 11.5815 14.0303 11.4785 13.8524 11.4108C13.6745 11.343 13.4848 11.3118 13.2945 11.3191C12.9289 11.3331 12.583 11.4882 12.3293 11.7518C12.0756 12.0154 11.9339 12.3671 11.9339 12.7329C11.9339 13.0988 12.0756 13.4504 12.3293 13.714C12.583 13.9777 12.9289 14.1327 13.2945 14.1467ZM26.5427 20.5696L24.7938 28.4322C24.7214 28.7587 24.5675 29.0617 24.3464 29.3127C24.1253 29.5637 23.8442 29.7547 23.5294 29.8677C23.2146 29.9808 22.8763 30.0124 22.546 29.9594C22.2157 29.9064 21.9042 29.7707 21.6405 29.5649L17.7071 26.5941H8.8861L4.94858 29.5628C4.6852 29.7707 4.37328 29.9082 4.04215 29.9624C3.71102 30.0166 3.37155 29.9857 3.05563 29.8727C2.73971 29.7596 2.45772 29.5681 2.23615 29.3161C2.01459 29.0641 1.86073 28.76 1.78903 28.4322L0.0463947 20.5675C-0.0185246 20.272 -0.0152744 19.9656 0.0558987 19.6716C0.127072 19.3776 0.264297 19.1036 0.457158 18.8705L4.55857 13.9538C4.68511 12.1697 5.08965 10.4188 5.75766 8.76118C7.55631 4.25109 10.7822 1.42346 12.0851 0.415221C12.4324 0.146066 12.8593 0 13.2987 0C13.7381 0 14.165 0.146066 14.5123 0.415221C15.8151 1.42346 19.0369 4.25316 20.8397 8.76118C21.5057 10.4188 21.9102 12.1697 22.0388 13.9538L26.1402 18.8705C26.3317 19.1043 26.4674 19.3786 26.5371 19.6726C26.6068 19.9666 26.6087 20.2726 26.5427 20.5675M9.08733 24.895H17.4997C20.6011 19.4555 21.1945 14.2401 19.2589 9.38977C17.5681 5.1473 14.4003 2.47734 13.4709 1.75331C13.4208 1.71325 13.3586 1.69142 13.2945 1.69142C13.2304 1.69142 13.1682 1.71325 13.1182 1.75331C12.1867 2.47319 9.0168 5.1473 7.33018 9.38977C5.39254 14.2401 5.98586 19.4555 9.08733 24.895ZM7.49407 25.5174C5.79708 22.4782 4.82203 19.4929 4.57724 16.5802L1.76206 19.9555C1.73494 19.9891 1.71566 20.0283 1.70561 20.0703C1.69556 20.1123 1.695 20.156 1.70397 20.1982L3.45282 28.067C3.46309 28.114 3.48516 28.1575 3.51695 28.1935C3.54874 28.2295 3.5892 28.2568 3.63449 28.2728C3.67978 28.2888 3.7284 28.293 3.77576 28.2849C3.82311 28.2769 3.86762 28.2569 3.90508 28.2268L3.92582 28.2123L7.49407 25.5174ZM24.8312 19.9576L22.0181 16.5802C21.7754 19.4929 20.8024 22.4782 19.1012 25.5174L22.6695 28.204L22.6902 28.2206C22.728 28.2497 22.7723 28.2692 22.8194 28.2771C22.8664 28.2851 22.9147 28.2813 22.9599 28.2662C23.0046 28.2494 23.0444 28.2219 23.0758 28.1861C23.1073 28.1503 23.1295 28.1072 23.1404 28.0608L24.8913 20.1982C24.8995 20.1555 24.8979 20.1116 24.8868 20.0696C24.8756 20.0276 24.8552 19.9886 24.827 19.9555L24.8312 19.9576Z" fill="#1A1A1A"/>
</svg>
